<svg xmlns="http://www.w3.org/2000/svg" viewBox="0 0 83.9 83.9"><defs><style>.cls-1{fill:#fff;}</style></defs><g id="Capa_2" data-name="Capa 2"><g id="iconos"><path class="cls-1" d="M42,0a42,42,0,1,0,42,42A41.95,41.95,0,0,0,42,0Zm-10,32.66a117,117,0,0,0-.63,13q0,2.09.09,6.23c.06,2.77.08,4.84.08,6.21,0,.4-.23.64-.71.72a34.37,34.37,0,0,1-4.39.17,34.85,34.85,0,0,1-4.42-.17c-.42-.08-.67-.2-.77-.37a3.18,3.18,0,0,1-.06-.86c0-1.32,0-3.31.09-5.95s.09-4.64.09-6a104.49,104.49,0,0,0-.64-13c0-.31-.05-.51-.05-.61,0-.38.26-.57.77-.57s1.35.06,2.45.17,1.93.18,2.48.18,1.39,0,2.5-.15,1.94-.14,2.49-.14.69.19.69.57A5.51,5.51,0,0,1,31.91,32.66Zm-5.5-3.36a6.19,6.19,0,0,1-4-1.26,4.54,4.54,0,0,1-1.72-3.73,4.5,4.5,0,0,1,1.78-3.67,6.06,6.06,0,0,1,3.93-1.32,5.89,5.89,0,0,1,3.87,1.35A4.53,4.53,0,0,1,32,24.31C32,27.64,30.15,29.3,26.41,29.3Zm38.1,29.54c-.53.07-1.93.11-4.18.11a33.62,33.62,0,0,1-4.47-.17A1,1,0,0,1,55,57.6c0-.9,0-2.25.08-4.07s.09-3.18.09-4.1c0-.71,0-1.76-.06-3.17s-.06-2.46-.06-3.17c0-2.61-1.13-3.92-3.41-3.92a5,5,0,0,0-2.61,1c-1.07.73-1.6,1.44-1.6,2.15V57.77a1,1,0,0,1-.89,1.07c-.67.07-2,.11-4.1.11a34.45,34.45,0,0,1-4.36-.17c-.59-.1-.89-.41-.89-1,0-1.49,0-3.73,0-6.74s0-5.25,0-6.76a44.41,44.41,0,0,0-1.12-11.21,2.07,2.07,0,0,1-.06-.43.64.64,0,0,1,.43-.64c1.21-.13,2.81-.34,4.82-.63q4.56-.89,5.13-.88c.21,0,.37.64.49,1.93s.27,1.94.49,1.94c-.22,0,.81-.67,3.08-2a12.16,12.16,0,0,1,6-2,10.27,10.27,0,0,1,6.08,1.72,6.43,6.43,0,0,1,2.72,5.51v9.14c0,1.25,0,3.1,0,5.58s0,4.33,0,5.58A.83.83,0,0,1,64.51,58.84Z"/></g></g></svg>