<svg xmlns="http://www.w3.org/2000/svg" viewBox="0 0 83.9 83.9"><defs><style>.cls-1{fill:#fff;}</style></defs><g id="Capa_2" data-name="Capa 2"><g id="iconos"><path class="cls-1" d="M42,0a42,42,0,1,0,42,42A41.95,41.95,0,0,0,42,0Zm25.2,27.25a21.65,21.65,0,0,1-4,3.76.34.34,0,0,0-.18.34,29.86,29.86,0,0,1-.2,4.82A32,32,0,0,1,60,45.85a31.28,31.28,0,0,1-5.88,8.57,29,29,0,0,1-14.93,8.32,32.56,32.56,0,0,1-6.06.72,30.76,30.76,0,0,1-17.39-4.67l-.25-.16a22.08,22.08,0,0,0,10.87-1.5,21.78,21.78,0,0,0,5.17-3,10.9,10.9,0,0,1-10.12-7.54,10.77,10.77,0,0,0,4.66-.14l.16-.07a10.85,10.85,0,0,1-7.06-5,10.49,10.49,0,0,1-1.59-5.78,10.6,10.6,0,0,0,4.83,1.32A10.92,10.92,0,0,1,18,30.32a10.72,10.72,0,0,1,1.17-7.87A31.06,31.06,0,0,0,41.54,33.8c-.06-.43-.13-.81-.17-1.19A10.44,10.44,0,0,1,43,25.51a10.4,10.4,0,0,1,7.37-4.91,10.58,10.58,0,0,1,9.51,3,.55.55,0,0,0,.58.17,22.07,22.07,0,0,0,6.32-2.43l.14-.08H67A11.11,11.11,0,0,1,62.3,27.2a20.7,20.7,0,0,0,6-1.63s0,0,.05.05C68,26.17,67.58,26.72,67.15,27.25Z"/></g></g></svg>