<svg xmlns="http://www.w3.org/2000/svg" viewBox="0 0 83.9 81.84"><defs><style>.cls-1{fill:#fff;}</style></defs><g id="Capa_2" data-name="Capa 2"><g id="iconos"><path class="cls-1" d="M42,0A42,42,0,0,0,28.69,81.76c2.1.39,2.77-.91,2.77-2V71.93c-11.67,2.54-14.1-5-14.1-5-1.9-4.84-4.66-6.14-4.66-6.14-3.8-2.6.29-2.54.29-2.54,4.22.29,6.43,4.32,6.43,4.32,3.74,6.41,9.82,4.56,12.21,3.49A8.89,8.89,0,0,1,34.3,60.5C25,59.43,15.18,55.84,15.18,39.76A16.25,16.25,0,0,1,19.5,28.5c-.43-1.06-1.87-5.32.41-11.1,0,0,3.53-1.13,11.54,4.3a39.84,39.84,0,0,1,21,0c8-5.43,11.53-4.3,11.53-4.3,2.28,5.78.84,10.05.41,11.1a16.21,16.21,0,0,1,4.32,11.26c0,16.12-9.82,19.67-19.16,20.7,1.51,1.3,2.88,3.86,2.88,7.77V79.74c0,1.12.67,2.43,2.8,2A42,42,0,0,0,42,0Z"/></g></g></svg>