<svg xmlns="http://www.w3.org/2000/svg" viewBox="0 0 83.9 83.9"><defs><style>.cls-1{fill:#fff;}</style></defs><g id="Capa_2" data-name="Capa 2"><g id="iconos"><path class="cls-1" d="M55.16,20.93c-4.46-.69-21.23-.63-25.89-.11a8.89,8.89,0,0,0-8.33,7.91c-.74,4.84-.59,22.92,0,26.54a8.61,8.61,0,0,0,6.54,7.43c3.93,1.1,22.88.85,27.12.38A8.89,8.89,0,0,0,63,55.14c.71-4.64.58-21.51.11-25.83A8.89,8.89,0,0,0,55.16,20.93ZM41.94,55.44A13.49,13.49,0,1,1,55.44,42,13.48,13.48,0,0,1,41.94,55.44ZM56,31.11A3.16,3.16,0,1,1,59.13,28,3.16,3.16,0,0,1,56,31.11Z"/><path class="cls-1" d="M42,33.23A8.72,8.72,0,1,0,50.66,42,8.72,8.72,0,0,0,42,33.23Z"/><path class="cls-1" d="M42,0a42,42,0,1,0,42,42A41.95,41.95,0,0,0,42,0ZM67.46,57.14c-1.57,6-5.47,9.54-11.52,10.51-4.58.75-25,.88-29.11-.19C20.83,65.92,17.26,62,16.26,56c-.73-4.42-1-25,.27-29.52,1.63-5.82,5.49-9.26,11.38-10.22,5.16-.84,19.83-.62,26-.29a14.65,14.65,0,0,1,9.64,3.92,13.93,13.93,0,0,1,4.25,9C68.24,33,68.66,52.54,67.46,57.14Z"/></g></g></svg>