<svg xmlns="http://www.w3.org/2000/svg" viewBox="0 0 95.46 107.14"><defs><style>.cls-1{fill:#808a9b;}</style></defs><g id="Capa_2" data-name="Capa 2"><g id="iconos"><path id="logo" class="cls-1" d="M95.19,81.7a1.12,1.12,0,0,0-.15-.14,2.06,2.06,0,0,0-.4-.26,1.66,1.66,0,0,0-.91-.13,2.1,2.1,0,0,0-.64.15l-.06,0,0,0-.1.06-.09.06-.69.37a4.53,4.53,0,0,1-.67.17c-.14,0-.28,0-.72.07s-.64.06-.83.06a10.18,10.18,0,0,1-1.35,0,11.3,11.3,0,0,1-1.62-.29,13.6,13.6,0,0,1-3.86-1.57,11.15,11.15,0,0,1-4.25-6.2,14.8,14.8,0,0,1-.75-4.57c0-13.65,0-20.47.06-27.07.19-11.12-4.42-25.41-15-33.9A39.5,39.5,0,0,0,39,0a40,40,0,0,0-25.6,9.77C.28,21.39.18,37.57.21,40,.14,43.91-.1,57.77.05,69.87a35,35,0,0,0,.77,7.45A37.76,37.76,0,0,0,6.2,89.83c10.91,16.89,36.26,17.3,41.14,17.3,4.61,0,11.28.35,19.52-2.17A62.35,62.35,0,0,0,94.53,85.37l.26-.36c.09-.12.16-.24.23-.34s.12-.22.19-.37a4.5,4.5,0,0,0,.18-.62A3.05,3.05,0,0,0,95.19,81.7ZM19.79,56.64c-4.76,0-8.62-6.09-8.62-13.6s3.86-13.6,8.62-13.6,8.62,6.09,8.62,13.6S24.55,56.64,19.79,56.64Zm28,0c-4.76,0-8.62-6.09-8.62-13.6s3.86-13.6,8.62-13.6,8.62,6.09,8.62,13.6S52.53,56.64,47.77,56.64Z"/></g></g></svg>